<svg width="51" height="31" viewBox="0 0 51 31" fill="none" xmlns="http://www.w3.org/2000/svg">
<path d="M14.1377 11.3954C14.1377 12.0128 14.2045 12.5133 14.3213 12.8804C14.4548 13.2475 14.6216 13.6479 14.8552 14.0818C14.9386 14.2152 14.972 14.3487 14.972 14.4655C14.972 14.6324 14.8719 14.7992 14.655 14.9661L13.6038 15.6669C13.4536 15.767 13.3035 15.817 13.17 15.817C13.0031 15.817 12.8363 15.7336 12.6694 15.5834C12.4359 15.3331 12.2356 15.0662 12.0688 14.7992C11.9019 14.5156 11.7351 14.1986 11.5515 13.8148C10.2501 15.3498 8.61494 16.1174 6.64609 16.1174C5.24453 16.1174 4.12662 15.7169 3.30905 14.916C2.49147 14.1151 2.07434 13.0473 2.07434 11.7125C2.07434 10.2942 2.5749 9.14294 3.59269 8.27531C4.61049 7.40767 5.96199 6.97386 7.68057 6.97386C8.24787 6.97386 8.83185 7.02392 9.4492 7.10734C10.0666 7.19077 10.7006 7.32425 11.368 7.47442V6.2564C11.368 4.98832 11.101 4.104 10.5838 3.58676C10.0499 3.06952 9.14887 2.81924 7.86411 2.81924C7.28012 2.81924 6.67946 2.88598 6.0621 3.03615C5.44475 3.18632 4.84408 3.36986 4.2601 3.60345C3.99314 3.72024 3.79292 3.78699 3.67612 3.82036C3.55932 3.85373 3.4759 3.87041 3.40916 3.87041C3.17556 3.87041 3.05877 3.70356 3.05877 3.35317V2.53559C3.05877 2.26863 3.09214 2.06841 3.17556 1.95161C3.25899 1.83482 3.40916 1.71802 3.64275 1.60122C4.22673 1.30089 4.92751 1.05061 5.74509 0.850389C6.56266 0.633482 7.43029 0.53337 8.34798 0.53337C10.3335 0.53337 11.7851 0.983871 12.7195 1.88487C13.6372 2.78587 14.1044 4.15406 14.1044 5.98943V11.3954H14.1377ZM7.36355 13.9316C7.91416 13.9316 8.48146 13.8315 9.08213 13.6313C9.68279 13.431 10.2167 13.064 10.6672 12.5634C10.9342 12.2464 11.1344 11.896 11.2345 11.4956C11.3346 11.0951 11.4014 10.6112 11.4014 10.0439V9.34316C10.9175 9.22636 10.4003 9.12625 9.86633 9.05951C9.3324 8.99277 8.81516 8.9594 8.29792 8.9594C7.18001 8.9594 6.36244 9.17631 5.81183 9.62681C5.26121 10.0773 4.99425 10.7113 4.99425 11.5456C4.99425 12.3298 5.19447 12.9138 5.6116 13.3142C6.01205 13.7314 6.59603 13.9316 7.36355 13.9316ZM20.7618 15.7336C20.4614 15.7336 20.2612 15.6835 20.1277 15.5667C19.9943 15.4666 19.8775 15.233 19.7773 14.916L15.8563 2.01835C15.7562 1.68465 15.7062 1.46774 15.7062 1.35095C15.7062 1.08398 15.8396 0.933815 16.1066 0.933815H17.7417C18.0588 0.933815 18.2757 0.983871 18.3925 1.10067C18.526 1.20078 18.6261 1.43437 18.7262 1.75139L21.5293 12.797L24.1322 1.75139C24.2156 1.41769 24.3157 1.20078 24.4492 1.10067C24.5827 1.00056 24.8163 0.933815 25.1166 0.933815H26.4514C26.7684 0.933815 26.9853 0.983871 27.1188 1.10067C27.2523 1.20078 27.3691 1.43437 27.4359 1.75139L30.0721 12.9305L32.9587 1.75139C33.0588 1.41769 33.1756 1.20078 33.2924 1.10067C33.4258 1.00056 33.6427 0.933815 33.9431 0.933815H35.4948C35.7618 0.933815 35.9119 1.0673 35.9119 1.35095C35.9119 1.43437 35.8952 1.5178 35.8786 1.61791C35.8619 1.71802 35.8285 1.8515 35.7618 2.03504L31.7406 14.9327C31.6405 15.2664 31.5237 15.4833 31.3902 15.5834C31.2568 15.6835 31.0399 15.7503 30.7562 15.7503H29.3213C29.0043 15.7503 28.7874 15.7002 28.6539 15.5834C28.5204 15.4666 28.4036 15.2497 28.3369 14.916L25.7506 4.15406L23.1811 14.8993C23.0977 15.233 22.9976 15.4499 22.8641 15.5667C22.7306 15.6835 22.497 15.7336 22.1967 15.7336H20.7618ZM42.2023 16.1841C41.3346 16.1841 40.467 16.084 39.6327 15.8838C38.7985 15.6835 38.1478 15.4666 37.7139 15.2164C37.447 15.0662 37.2634 14.8993 37.1967 14.7492C37.13 14.599 37.0966 14.4321 37.0966 14.282V13.431C37.0966 13.0806 37.2301 12.9138 37.4803 12.9138C37.5805 12.9138 37.6806 12.9305 37.7807 12.9638C37.8808 12.9972 38.031 13.064 38.1978 13.1307C38.7651 13.381 39.3825 13.5812 40.0332 13.7147C40.7006 13.8482 41.3513 13.9149 42.0187 13.9149C43.0699 13.9149 43.8875 13.7314 44.4548 13.3643C45.0221 12.9972 45.3224 12.4633 45.3224 11.7792C45.3224 11.312 45.1722 10.9283 44.8719 10.6112C44.5716 10.2942 44.0043 10.0106 43.1867 9.7436L40.7673 8.99277C39.5493 8.60901 38.6483 8.04171 38.0977 7.29088C37.5471 6.55673 37.2634 5.73915 37.2634 4.87152C37.2634 4.17074 37.4136 3.55339 37.7139 3.01947C38.0143 2.48554 38.4147 2.01835 38.9153 1.65128C39.4158 1.26752 39.9831 0.983871 40.6505 0.783648C41.3179 0.583426 42.0187 0.5 42.7529 0.5C43.1199 0.5 43.5037 0.516685 43.8708 0.566741C44.2545 0.616796 44.6049 0.683537 44.9553 0.750278C45.289 0.833704 45.606 0.91713 45.9064 1.01724C46.2067 1.11735 46.4403 1.21746 46.6072 1.31758C46.8407 1.45106 47.0076 1.58454 47.1077 1.73471C47.2078 1.86819 47.2579 2.05172 47.2579 2.28532V3.06952C47.2579 3.41991 47.1244 3.60345 46.8741 3.60345C46.7406 3.60345 46.5237 3.53671 46.2401 3.40323C45.289 2.96941 44.2212 2.7525 43.0365 2.7525C42.0855 2.7525 41.3346 2.90267 40.8174 3.21969C40.3001 3.53671 40.0332 4.02058 40.0332 4.70467C40.0332 5.17186 40.2 5.5723 40.5337 5.88932C40.8674 6.20634 41.4848 6.52336 42.3691 6.80701L44.7384 7.55784C45.9397 7.9416 46.8074 8.47553 47.3246 9.15962C47.8419 9.84371 48.0921 10.6279 48.0921 11.4956C48.0921 12.213 47.942 12.8637 47.6583 13.431C47.358 13.9983 46.9575 14.4989 46.4403 14.8993C45.9231 15.3165 45.3057 15.6168 44.5882 15.8337C43.8374 16.0673 43.0532 16.1841 42.2023 16.1841Z" fill="#F5F5F5"/>
<path fill-rule="evenodd" clip-rule="evenodd" d="M45.3557 24.2927C39.8663 28.3472 31.8908 30.4996 25.0331 30.4996C15.4225 30.4996 6.76285 26.9457 0.22225 21.0391C-0.294992 20.5719 0.172194 19.9379 0.789547 20.3049C7.86407 24.4095 16.5904 26.8956 25.6171 26.8956C31.7072 26.8956 38.398 25.6275 44.5548 23.0246C45.4725 22.6075 46.2567 23.6253 45.3557 24.2927Z" fill="#FF9900"/>
<path fill-rule="evenodd" clip-rule="evenodd" d="M47.6417 21.69C46.9409 20.789 43.0032 21.2562 41.2179 21.4731C40.6839 21.5399 40.6005 21.0727 41.0844 20.7223C44.2212 18.5198 49.3769 19.1539 49.9776 19.888C50.5783 20.6389 49.8107 25.7946 46.8742 28.264C46.4237 28.6478 45.9898 28.4475 46.1901 27.947C46.8575 26.2951 48.3425 22.5743 47.6417 21.69Z" fill="#FF9900"/>
</svg>
